<svg xmlns="http://www.w3.org/2000/svg" width="20.532" height="21.521" viewBox="0 0 20.532 21.521"><defs><style>.a{fill:#464646;}</style></defs><path class="a" d="M21.595,8.007a.416.416,0,0,0-.59,0L9.626,19.386A4.459,4.459,0,0,1,3.32,13.079L14.7,1.7a3.058,3.058,0,0,1,4.41.172,3.057,3.057,0,0,1,.173,4.41L8.592,16.972A1.534,1.534,0,0,1,6.423,14.8l7.241-7.241a.417.417,0,1,0-.59-.59L5.833,14.213a2.368,2.368,0,0,0,3.348,3.348l10.69-10.69A3.871,3.871,0,0,0,19.7,1.282a3.871,3.871,0,0,0-5.589-.172L2.73,12.489a5.294,5.294,0,0,0,7.486,7.486L21.595,8.6A.416.416,0,0,0,21.595,8.007Z" transform="translate(-1.185 0.001)"/></svg>