<svg xmlns="http://www.w3.org/2000/svg" width="24.575" height="19.416" viewBox="0 0 24.575 19.416"><defs><style>.a{fill:#464646;}</style></defs><g transform="translate(0)"><path class="a" d="M21.734,54.435H2.84A2.843,2.843,0,0,1,0,51.6V40.078a2.843,2.843,0,0,1,2.84-2.84H6.7L7.033,36.1a1.4,1.4,0,0,1,1.377-1.08h7.755A1.428,1.428,0,0,1,17.544,36.1l.009.039.308,1.094h3.874a2.843,2.843,0,0,1,2.84,2.84V51.6A2.844,2.844,0,0,1,21.734,54.435ZM2.84,38.184A1.9,1.9,0,0,0,.947,40.078V51.6A1.9,1.9,0,0,0,2.84,53.489H21.734A1.9,1.9,0,0,0,23.628,51.6V40.078a1.9,1.9,0,0,0-1.893-1.893h-4.59l-.518-1.848a.476.476,0,0,0-.461-.371H8.409a.47.47,0,0,0-.461.371L7.4,38.184Zm9.448,13.39a6.007,6.007,0,1,1,6.007-6.007A6.014,6.014,0,0,1,12.288,51.574Zm0-11.069a5.061,5.061,0,1,0,5.06,5.061A5.067,5.067,0,0,0,12.288,40.505Zm8.835-.564a.873.873,0,1,0,.873.873A.873.873,0,0,0,21.123,39.941Z" transform="translate(0 -35.019)"/></g></svg>