<svg xmlns="http://www.w3.org/2000/svg" width="21.376" height="21.376" viewBox="0 0 21.376 21.376"><defs><style>.a{fill:#2aa1b7;}</style></defs><g transform="translate(0)"><g transform="translate(0)"><path class="a" d="M0,19.123a2.257,2.257,0,0,0,2.254,2.254H19.123a2.257,2.257,0,0,0,2.254-2.254V2.254A2.257,2.257,0,0,0,19.123,0H2.254A2.257,2.257,0,0,0,0,2.254Zm19.123,1.184H2.254A1.187,1.187,0,0,1,1.07,19.123V16.305l4.053-4.053,3.464,3.464a.533.533,0,0,0,.756,0L15.6,9.461l4.709,4.709v4.953A1.187,1.187,0,0,1,19.123,20.306ZM2.254,1.07H19.123a1.187,1.187,0,0,1,1.184,1.184v10.4L15.973,8.325a.533.533,0,0,0-.756,0L8.963,14.58,5.5,11.116a.533.533,0,0,0-.756,0L1.07,14.79V2.254A1.187,1.187,0,0,1,2.254,1.07Z"/><path class="a" d="M92.121,76.942A2.721,2.721,0,1,0,89.4,74.221,2.724,2.724,0,0,0,92.121,76.942Zm0-4.372a1.651,1.651,0,1,1-1.651,1.651A1.653,1.653,0,0,1,92.121,72.57Z" transform="translate(-85.495 -68.377)"/></g></g></svg>